# Blender v2.78 (sub 0) OBJ File: ''
# www.blender.org
mtllib spike3.mtl
g Cone
v -0.000000 -0.060667 -0.333333
v 0.065031 -0.060667 -0.326928
v 0.127564 -0.060667 -0.307959
v 0.185194 -0.060667 -0.277156
v 0.235707 -0.060667 -0.235702
v 0.277162 -0.060667 -0.185190
v 0.307966 -0.060667 -0.127561
v 0.326935 -0.060667 -0.065030
v 0.333340 -0.060667 0.000000
v -0.000000 1.941334 0.000000
v 0.326935 -0.060667 0.065030
v 0.307966 -0.060667 0.127561
v 0.277162 -0.060667 0.185190
v 0.235707 -0.060667 0.235702
v 0.185194 -0.060667 0.277156
v 0.127564 -0.060667 0.307960
v 0.065031 -0.060667 0.326928
v -0.000000 -0.060667 0.333333
v -0.065032 -0.060667 0.326928
v -0.127564 -0.060667 0.307960
v -0.185194 -0.060667 0.277156
v -0.235708 -0.060667 0.235702
v -0.277163 -0.060667 0.185190
v -0.307967 -0.060667 0.127561
v -0.326935 -0.060667 0.065030
v -0.333340 -0.060667 -0.000000
v -0.326935 -0.060667 -0.065030
v -0.307966 -0.060667 -0.127561
v -0.277162 -0.060667 -0.185190
v -0.235707 -0.060667 -0.235702
v -0.185194 -0.060667 -0.277156
v -0.127563 -0.060667 -0.307960
v -0.065031 -0.060667 -0.326928
vn 0.0967 0.1635 -0.9818
vn 0.2864 0.1635 -0.9441
vn 0.4650 0.1635 -0.8701
vn 0.6259 0.1635 -0.7626
vn 0.7626 0.1635 -0.6259
vn 0.8701 0.1635 -0.4651
vn 0.9441 0.1635 -0.2864
vn 0.9818 0.1635 -0.0967
vn 0.9818 0.1635 0.0967
vn 0.9441 0.1635 0.2864
vn 0.8701 0.1635 0.4651
vn 0.7626 0.1635 0.6259
vn 0.6259 0.1635 0.7626
vn 0.4650 0.1635 0.8701
vn 0.2864 0.1635 0.9441
vn 0.0967 0.1635 0.9818
vn -0.0967 0.1635 0.9818
vn -0.2864 0.1635 0.9441
vn -0.4650 0.1635 0.8701
vn -0.6259 0.1635 0.7626
vn -0.7626 0.1635 0.6259
vn -0.8701 0.1635 0.4651
vn -0.9441 0.1635 0.2864
vn -0.9818 0.1635 0.0967
vn -0.9818 0.1635 -0.0967
vn -0.9441 0.1635 -0.2864
vn -0.8701 0.1635 -0.4651
vn -0.7626 0.1635 -0.6259
vn -0.6259 0.1635 -0.7626
vn -0.4650 0.1635 -0.8701
vn -0.2864 0.1635 -0.9441
vn -0.0967 0.1635 -0.9818
vn 0.0000 -1.0000 0.0000
usemtl None
s off
f 1//1 10//1 2//1
f 2//2 10//2 3//2
f 3//3 10//3 4//3
f 4//4 10//4 5//4
f 5//5 10//5 6//5
f 6//6 10//6 7//6
f 7//7 10//7 8//7
f 8//8 10//8 9//8
f 9//9 10//9 11//9
f 11//10 10//10 12//10
f 12//11 10//11 13//11
f 13//12 10//12 14//12
f 14//13 10//13 15//13
f 15//14 10//14 16//14
f 16//15 10//15 17//15
f 17//16 10//16 18//16
f 18//17 10//17 19//17
f 19//18 10//18 20//18
f 20//19 10//19 21//19
f 21//20 10//20 22//20
f 22//21 10//21 23//21
f 23//22 10//22 24//22
f 24//23 10//23 25//23
f 25//24 10//24 26//24
f 26//25 10//25 27//25
f 27//26 10//26 28//26
f 28//27 10//27 29//27
f 29//28 10//28 30//28
f 30//29 10//29 31//29
f 31//30 10//30 32//30
f 32//31 10//31 33//31
f 33//32 10//32 1//32
f 1//33 2//33 3//33 4//33 5//33 6//33 7//33 8//33 9//33 11//33 12//33 13//33 14//33 15//33 16//33 17//33 18//33 19//33 20//33 21//33 22//33 23//33 24//33 25//33 26//33 27//33 28//33 29//33 30//33 31//33 32//33 33//33
