# Blender v2.78 (sub 0) OBJ File: 'lever.blend'
# www.blender.org
mtllib lever.mtl
g LeverBase
v 0.000000 -0.187497 -0.200000
v 0.000000 -0.187497 0.200000
v 0.048773 -0.192300 -0.200000
v 0.048773 -0.192300 0.200000
v 0.095671 -0.206527 -0.200000
v 0.095671 -0.206527 0.200000
v 0.138893 -0.229629 -0.200000
v 0.138893 -0.229629 0.200000
v 0.176777 -0.260720 -0.200000
v 0.176777 -0.260720 0.200000
v 0.207867 -0.298604 -0.200000
v 0.207867 -0.298604 0.200000
v 0.230970 -0.341826 -0.200000
v 0.230970 -0.341826 0.200000
v 0.245196 -0.388724 -0.200000
v 0.245196 -0.388724 0.200000
v 0.250000 -0.437497 -0.200000
v 0.250000 -0.437497 0.200000
v -0.250000 -0.437496 -0.200000
v -0.250000 -0.437496 0.200000
v -0.245196 -0.388724 -0.200000
v -0.245196 -0.388724 0.200000
v -0.230970 -0.341826 -0.200000
v -0.230970 -0.341826 0.200000
v -0.207867 -0.298604 -0.200000
v -0.207867 -0.298604 0.200000
v -0.176776 -0.260720 -0.200000
v -0.176776 -0.260720 0.200000
v -0.138892 -0.229629 -0.200000
v -0.138892 -0.229629 0.200000
v -0.095671 -0.206527 -0.200000
v -0.095671 -0.206527 0.200000
v -0.048772 -0.192300 -0.200000
v -0.048772 -0.192300 0.200000
v -0.250000 -0.499997 -0.200000
v 0.250000 -0.499997 -0.200000
v 0.250000 -0.499997 0.200000
v -0.250000 -0.499997 0.200000
vn 0.0980 0.9952 0.0000
vn 0.2903 0.9569 0.0000
vn 0.4714 0.8819 0.0000
vn 0.6344 0.7730 0.0000
vn 0.7730 0.6344 0.0000
vn 0.8819 0.4714 0.0000
vn 0.9569 0.2903 0.0000
vn 0.9952 0.0980 0.0000
vn -0.9952 0.0980 0.0000
vn -0.9569 0.2903 0.0000
vn -0.8819 0.4714 0.0000
vn -0.7730 0.6344 0.0000
vn -0.6344 0.7730 0.0000
vn -0.4714 0.8819 0.0000
vn -0.2903 0.9569 0.0000
vn -0.0980 0.9952 0.0000
vn -0.0000 -0.0000 1.0000
vn 0.0000 -1.0000 -0.0000
vn 1.0000 0.0000 0.0000
vn -1.0000 -0.0000 0.0000
vn -0.0000 0.0000 -1.0000
g LeverBase_LeverBase_LeverBase
usemtl LeverBase
s off
f 1//1 2//1 4//1 3//1
f 3//2 4//2 6//2 5//2
f 5//3 6//3 8//3 7//3
f 7//4 8//4 10//4 9//4
f 9//5 10//5 12//5 11//5
f 11//6 12//6 14//6 13//6
f 13//7 14//7 16//7 15//7
f 15//8 16//8 18//8 17//8
f 19//9 20//9 22//9 21//9
f 21//10 22//10 24//10 23//10
f 23//11 24//11 26//11 25//11
f 25//12 26//12 28//12 27//12
f 27//13 28//13 30//13 29//13
f 29//14 30//14 32//14 31//14
f 31//15 32//15 34//15 33//15
f 33//16 34//16 2//16 1//16
f 20//17 38//17 37//17 18//17 16//17 14//17 12//17 10//17 8//17 6//17 4//17 2//17 34//17 32//17 30//17 28//17 26//17 24//17 22//17
f 38//18 35//18 36//18 37//18
f 18//19 37//19 36//19 17//19
f 19//20 35//20 38//20 20//20
f 17//21 36//21 35//21 19//21 21//21 23//21 25//21 27//21 29//21 31//21 33//21 1//21 3//21 5//21 7//21 9//21 11//21 13//21 15//21
g LeverHandle
v 0.000000 0.300000 0.000000
v 0.072361 0.355278 0.052573
v -0.027639 0.355278 0.085065
v -0.089443 0.355278 0.000000
v -0.027639 0.355278 -0.085065
v 0.072361 0.355278 -0.052573
v 0.027639 0.444722 0.085065
v -0.072361 0.444722 0.052573
v -0.072361 0.444722 -0.052573
v 0.027639 0.444722 -0.085065
v 0.089443 0.444722 0.000000
v 0.000000 0.500000 0.000000
v -0.016246 0.314935 0.050000
v 0.042532 0.314935 0.030901
v 0.026287 0.347426 0.080901
v 0.085065 0.347426 0.000000
v 0.042532 0.314935 -0.030901
v -0.052573 0.314935 0.000000
v -0.068819 0.347426 0.050000
v -0.016246 0.314935 -0.050000
v -0.068819 0.347426 -0.050000
v 0.026287 0.347426 -0.080901
v 0.095106 0.400000 0.030901
v 0.095106 0.400000 -0.030901
v 0.000000 0.400000 0.100000
v 0.058779 0.400000 0.080902
v -0.095106 0.400000 0.030901
v -0.058779 0.400000 0.080902
v -0.058779 0.400000 -0.080902
v -0.095106 0.400000 -0.030901
v 0.058779 0.400000 -0.080902
v 0.000000 0.400000 -0.100000
v 0.068819 0.452574 0.050000
v -0.026287 0.452574 0.080901
v -0.085065 0.452574 0.000000
v -0.026287 0.452574 -0.080901
v 0.068819 0.452574 -0.050000
v 0.016246 0.485065 0.050000
v 0.052573 0.485065 0.000000
v -0.042532 0.485065 0.030901
v -0.042532 0.485065 -0.030901
v 0.016246 0.485065 -0.050000
vn 0.1024 -0.9435 0.3151
vn 0.7002 -0.6617 0.2680
vn -0.2680 -0.9435 0.1947
vn -0.2680 -0.9435 -0.1947
vn 0.1024 -0.9435 -0.3151
vn 0.9050 -0.3304 0.2680
vn 0.0247 -0.3304 0.9435
vn -0.8897 -0.3304 0.3151
vn -0.5746 -0.3304 -0.7488
vn 0.5346 -0.3304 -0.7779
vn 0.8026 -0.1256 0.5831
vn -0.3066 -0.1256 0.9435
vn -0.9921 -0.1256 0.0000
vn -0.3066 -0.1256 -0.9435
vn 0.8026 -0.1256 -0.5831
vn 0.4089 0.6617 0.6284
vn -0.4713 0.6617 0.5831
vn -0.7002 0.6617 -0.2680
vn 0.0385 0.6617 -0.7488
vn 0.7240 0.6617 -0.1947
vn 0.2680 0.9435 -0.1947
vn 0.4911 0.7947 -0.3568
vn 0.4089 0.6617 -0.6284
vn -0.1024 0.9435 -0.3151
vn -0.1876 0.7947 -0.5773
vn -0.4713 0.6617 -0.5831
vn -0.3313 0.9435 0.0000
vn -0.6071 0.7947 0.0000
vn -0.7002 0.6617 0.2680
vn -0.1024 0.9435 0.3151
vn -0.1876 0.7947 0.5773
vn 0.0385 0.6617 0.7488
vn 0.2680 0.9435 0.1947
vn 0.4911 0.7947 0.3568
vn 0.7240 0.6617 0.1947
vn 0.8897 0.3304 -0.3151
vn 0.7947 0.1876 -0.5773
vn 0.5746 0.3304 -0.7488
vn -0.0247 0.3304 -0.9435
vn -0.3035 0.1876 -0.9342
vn -0.5346 0.3304 -0.7779
vn -0.9050 0.3304 -0.2680
vn -0.9822 0.1876 0.0000
vn -0.9050 0.3304 0.2680
vn -0.5346 0.3304 0.7779
vn -0.3035 0.1876 0.9342
vn -0.0247 0.3304 0.9435
vn 0.5746 0.3304 0.7488
vn 0.7947 0.1876 0.5773
vn 0.8897 0.3304 0.3151
vn 0.3066 0.1256 -0.9435
vn 0.3035 -0.1876 -0.9342
vn 0.0247 -0.3304 -0.9435
vn -0.8026 0.1256 -0.5831
vn -0.7947 -0.1876 -0.5773
vn -0.8897 -0.3304 -0.3151
vn -0.8026 0.1256 0.5831
vn -0.7947 -0.1876 0.5773
vn -0.5746 -0.3304 0.7488
vn 0.3066 0.1256 0.9435
vn 0.3035 -0.1876 0.9342
vn 0.5346 -0.3304 0.7779
vn 0.9921 0.1256 0.0000
vn 0.9822 -0.1876 0.0000
vn 0.9050 -0.3304 -0.2680
vn 0.4713 -0.6617 -0.5831
vn 0.1876 -0.7947 -0.5773
vn -0.0385 -0.6617 -0.7488
vn -0.4089 -0.6617 -0.6284
vn -0.4911 -0.7947 -0.3568
vn -0.7240 -0.6617 -0.1947
vn -0.7240 -0.6617 0.1947
vn -0.4911 -0.7947 0.3568
vn -0.4089 -0.6617 0.6284
vn 0.7002 -0.6617 -0.2680
vn 0.6071 -0.7947 0.0000
vn 0.3313 -0.9435 0.0000
vn -0.0385 -0.6617 0.7488
vn 0.1876 -0.7947 0.5773
vn 0.4713 -0.6617 0.5831
g LeverHandle_LeverHandle_LeverHandle
usemtl LeverHandle
s off
f 39//22 52//22 51//22
f 40//23 52//23 54//23
f 39//24 51//24 56//24
f 39//25 56//25 58//25
f 39//26 58//26 55//26
f 40//27 54//27 61//27
f 41//28 53//28 63//28
f 42//29 57//29 65//29
f 43//30 59//30 67//30
f 44//31 60//31 69//31
f 40//32 61//32 64//32
f 41//33 63//33 66//33
f 42//34 65//34 68//34
f 43//35 67//35 70//35
f 44//36 69//36 62//36
f 45//37 71//37 76//37
f 46//38 72//38 78//38
f 47//39 73//39 79//39
f 48//40 74//40 80//40
f 49//41 75//41 77//41
f 77//42 80//42 50//42
f 77//43 75//43 80//43
f 75//44 48//44 80//44
f 80//45 79//45 50//45
f 80//46 74//46 79//46
f 74//47 47//47 79//47
f 79//48 78//48 50//48
f 79//49 73//49 78//49
f 73//50 46//50 78//50
f 78//51 76//51 50//51
f 78//52 72//52 76//52
f 72//53 45//53 76//53
f 76//54 77//54 50//54
f 76//55 71//55 77//55
f 71//56 49//56 77//56
f 62//57 75//57 49//57
f 62//58 69//58 75//58
f 69//59 48//59 75//59
f 70//60 74//60 48//60
f 70//61 67//61 74//61
f 67//62 47//62 74//62
f 68//63 73//63 47//63
f 68//64 65//64 73//64
f 65//65 46//65 73//65
f 66//66 72//66 46//66
f 66//67 63//67 72//67
f 63//68 45//68 72//68
f 64//69 71//69 45//69
f 64//70 61//70 71//70
f 61//71 49//71 71//71
f 69//72 70//72 48//72
f 69//73 60//73 70//73
f 60//74 43//74 70//74
f 67//75 68//75 47//75
f 67//76 59//76 68//76
f 59//77 42//77 68//77
f 65//78 66//78 46//78
f 65//79 57//79 66//79
f 57//80 41//80 66//80
f 63//81 64//81 45//81
f 63//82 53//82 64//82
f 53//83 40//83 64//83
f 61//84 62//84 49//84
f 61//85 54//85 62//85
f 54//86 44//86 62//86
f 55//87 60//87 44//87
f 55//88 58//88 60//88
f 58//89 43//89 60//89
f 58//90 59//90 43//90
f 58//91 56//91 59//91
f 56//92 42//92 59//92
f 56//93 57//93 42//93
f 56//94 51//94 57//94
f 51//95 41//95 57//95
f 54//96 55//96 44//96
f 54//97 52//97 55//97
f 52//98 39//98 55//98
f 51//99 53//99 41//99
f 51//100 52//100 53//100
f 52//101 40//101 53//101
g LeverRod
v 0.000000 -0.400000 -0.025000
v 0.000000 0.400000 -0.025000
v 0.004877 -0.400000 -0.024520
v 0.004877 0.400000 -0.024520
v 0.009567 -0.400000 -0.023097
v 0.009567 0.400000 -0.023097
v 0.013889 -0.400000 -0.020787
v 0.013889 0.400000 -0.020787
v 0.017678 -0.400000 -0.017678
v 0.017678 0.400000 -0.017678
v 0.020787 -0.400000 -0.013889
v 0.020787 0.400000 -0.013889
v 0.023097 -0.400000 -0.009567
v 0.023097 0.400000 -0.009567
v 0.024520 -0.400000 -0.004877
v 0.024520 0.400000 -0.004877
v 0.025000 -0.400000 -0.000000
v 0.025000 0.400000 -0.000000
v 0.024520 -0.400000 0.004877
v 0.024520 0.400000 0.004877
v 0.023097 -0.400000 0.009567
v 0.023097 0.400000 0.009567
v 0.020787 -0.400000 0.013889
v 0.020787 0.400000 0.013889
v 0.017678 -0.400000 0.017678
v 0.017678 0.400000 0.017678
v 0.013889 -0.400000 0.020787
v 0.013889 0.400000 0.020787
v 0.009567 -0.400000 0.023097
v 0.009567 0.400000 0.023097
v 0.004877 -0.400000 0.024520
v 0.004877 0.400000 0.024520
v -0.000000 -0.400000 0.025000
v -0.000000 0.400000 0.025000
v -0.004877 -0.400000 0.024520
v -0.004877 0.400000 0.024520
v -0.009567 -0.400000 0.023097
v -0.009567 0.400000 0.023097
v -0.013889 -0.400000 0.020787
v -0.013889 0.400000 0.020787
v -0.017678 -0.400000 0.017678
v -0.017678 0.400000 0.017678
v -0.020787 -0.400000 0.013889
v -0.020787 0.400000 0.013889
v -0.023097 -0.400000 0.009567
v -0.023097 0.400000 0.009567
v -0.024520 -0.400000 0.004877
v -0.024520 0.400000 0.004877
v -0.025000 -0.400000 -0.000000
v -0.025000 0.400000 -0.000000
v -0.024520 -0.400000 -0.004877
v -0.024520 0.400000 -0.004877
v -0.023097 -0.400000 -0.009567
v -0.023097 0.400000 -0.009567
v -0.020787 -0.400000 -0.013889
v -0.020787 0.400000 -0.013889
v -0.017678 -0.400000 -0.017678
v -0.017678 0.400000 -0.017678
v -0.013889 -0.400000 -0.020787
v -0.013889 0.400000 -0.020787
v -0.009567 -0.400000 -0.023097
v -0.009567 0.400000 -0.023097
v -0.004877 -0.400000 -0.024520
v -0.004877 0.400000 -0.024520
vn 0.0980 0.0000 -0.9952
vn 0.2903 0.0000 -0.9569
vn 0.4714 0.0000 -0.8819
vn 0.6344 0.0000 -0.7730
vn 0.7730 0.0000 -0.6344
vn 0.8819 0.0000 -0.4714
vn 0.9569 0.0000 -0.2903
vn 0.9952 0.0000 -0.0980
vn 0.9952 0.0000 0.0980
vn 0.9569 0.0000 0.2903
vn 0.8819 0.0000 0.4714
vn 0.7730 0.0000 0.6344
vn 0.6344 0.0000 0.7730
vn 0.4714 0.0000 0.8819
vn 0.2903 0.0000 0.9569
vn 0.0980 0.0000 0.9952
vn -0.0980 0.0000 0.9952
vn -0.2903 0.0000 0.9569
vn -0.4714 0.0000 0.8819
vn -0.6344 0.0000 0.7730
vn -0.7730 0.0000 0.6344
vn -0.8819 0.0000 0.4714
vn -0.9569 0.0000 0.2903
vn -0.9952 0.0000 0.0980
vn -0.9952 0.0000 -0.0980
vn -0.9569 0.0000 -0.2903
vn -0.8819 0.0000 -0.4714
vn -0.7730 0.0000 -0.6344
vn -0.6344 0.0000 -0.7730
vn -0.4714 0.0000 -0.8819
vn 0.0000 1.0000 0.0000
vn -0.2903 0.0000 -0.9569
vn -0.0980 0.0000 -0.9952
vn 0.0000 -1.0000 0.0000
g LeverRod_LeverRod_LeverRod
usemtl LeverRod
s off
f 81//102 82//102 84//102 83//102
f 83//103 84//103 86//103 85//103
f 85//104 86//104 88//104 87//104
f 87//105 88//105 90//105 89//105
f 89//106 90//106 92//106 91//106
f 91//107 92//107 94//107 93//107
f 93//108 94//108 96//108 95//108
f 95//109 96//109 98//109 97//109
f 97//110 98//110 100//110 99//110
f 99//111 100//111 102//111 101//111
f 101//112 102//112 104//112 103//112
f 103//113 104//113 106//113 105//113
f 105//114 106//114 108//114 107//114
f 107//115 108//115 110//115 109//115
f 109//116 110//116 112//116 111//116
f 111//117 112//117 114//117 113//117
f 113//118 114//118 116//118 115//118
f 115//119 116//119 118//119 117//119
f 117//120 118//120 120//120 119//120
f 119//121 120//121 122//121 121//121
f 121//122 122//122 124//122 123//122
f 123//123 124//123 126//123 125//123
f 125//124 126//124 128//124 127//124
f 127//125 128//125 130//125 129//125
f 129//126 130//126 132//126 131//126
f 131//127 132//127 134//127 133//127
f 133//128 134//128 136//128 135//128
f 135//129 136//129 138//129 137//129
f 137//130 138//130 140//130 139//130
f 139//131 140//131 142//131 141//131
f 84//132 82//132 144//132 142//132 140//132 138//132 136//132 134//132 132//132 130//132 128//132 126//132 124//132 122//132 120//132 118//132 116//132 114//132 112//132 110//132 108//132 106//132 104//132 102//132 100//132 98//132 96//132 94//132 92//132 90//132 88//132 86//132
f 141//133 142//133 144//133 143//133
f 143//134 144//134 82//134 81//134
f 81//135 83//135 85//135 87//135 89//135 91//135 93//135 95//135 97//135 99//135 101//135 103//135 105//135 107//135 109//135 111//135 113//135 115//135 117//135 119//135 121//135 123//135 125//135 127//135 129//135 131//135 133//135 135//135 137//135 139//135 141//135 143//135
