# Blender v2.78 (sub 0) OBJ File: 'lowpolytree.obj'
# www.blender.org
mtllib lowpolytree2.mtl
g Trunk
v -0.018886 -1.314390 -0.264436
v -0.018886 -0.720161 -0.373037
v 0.231064 -0.720161 -0.282063
v 0.161257 -1.314390 -0.198870
v 0.364060 -0.720161 -0.051708
v 0.257109 -1.314390 -0.032850
v 0.317871 -0.720161 0.210242
v 0.223820 -1.314390 0.155942
v 0.114110 -0.720161 0.381218
v 0.076966 -1.314390 0.279167
v -0.151881 -0.720161 0.381218
v -0.114738 -1.314390 0.279166
v -0.355642 -0.720161 0.210242
v -0.261591 -1.314390 0.155942
v -0.401831 -0.720161 -0.051708
v -0.294880 -1.314390 -0.032850
v -0.268836 -0.720161 -0.282063
v -0.199028 -1.314390 -0.198870
v -0.018886 -1.895607 -0.373037
v 0.231064 -1.895607 -0.282063
v 0.364060 -1.895607 -0.051708
v 0.317871 -1.895607 0.210242
v 0.114110 -1.895607 0.381218
v -0.151881 -1.895607 0.381218
v -0.355642 -1.895607 0.210242
v -0.401831 -1.895607 -0.051708
v -0.268836 -1.895607 -0.282063
vn 0.3371 -0.1693 -0.9261
vn 0.8535 -0.1693 -0.4928
vn 0.9706 -0.1693 0.1711
vn 0.6335 -0.1693 0.7550
vn -0.0000 -0.1693 0.9856
vn -0.6335 -0.1693 0.7550
vn -0.9706 -0.1693 0.1711
vn -0.3371 -0.1693 -0.9261
vn -0.8535 -0.1693 -0.4928
vn 0.0000 -1.0000 -0.0000
vn -0.8530 0.1729 -0.4925
vn -0.3369 0.1729 -0.9255
vn -0.9700 0.1729 0.1710
vn -0.6331 0.1729 0.7545
vn -0.0000 0.1729 0.9849
vn 0.6331 0.1729 0.7545
vn 0.9700 0.1729 0.1710
vn 0.8530 0.1729 -0.4925
vn 0.3369 0.1729 -0.9255
usemtl (null)
s 1
f 1//1 2//1 3//1 4//1
f 4//2 3//2 5//2 6//2
f 6//3 5//3 7//3 8//3
f 8//4 7//4 9//4 10//4
f 10//5 9//5 11//5 12//5
f 12//6 11//6 13//6 14//6
f 14//7 13//7 15//7 16//7
f 18//8 17//8 2//8 1//8
f 16//9 15//9 17//9 18//9
f 19//10 20//10 21//10 22//10 23//10 24//10 25//10 26//10 27//10
f 26//11 16//11 18//11 27//11
f 27//12 18//12 1//12 19//12
f 25//13 14//13 16//13 26//13
f 24//14 12//14 14//14 25//14
f 23//15 10//15 12//15 24//15
f 22//16 8//16 10//16 23//16
f 21//17 6//17 8//17 22//17
f 20//18 4//18 6//18 21//18
f 19//19 1//19 4//19 20//19
g Leaves
v 0.015674 2.466367 -0.253986
v 0.019167 3.227034 0.022685
v 0.028745 3.227034 0.026171
v 0.199847 2.466368 -0.186952
v 0.033842 3.227034 0.034998
v 0.292234 2.403041 -0.023413
v 0.032072 3.227034 0.045036
v 0.263809 2.466367 0.175798
v 0.024263 3.227034 0.051588
v 0.113670 2.466367 0.301780
v 0.014070 3.227034 0.051588
v -0.087932 2.403041 0.295584
v 0.006262 3.227034 0.045036
v -0.232462 2.466367 0.175798
v 0.004492 3.227034 0.034998
v -0.266496 2.466367 -0.017217
v 0.009589 3.227034 0.026171
v -0.174109 2.403041 -0.193148
v -0.005440 -0.809443 -0.939428
v 0.637348 -0.809443 -0.705472
v 0.979368 -1.003520 -0.113076
v 0.860586 -1.003520 0.560572
v 0.336580 -0.809443 1.000265
v -0.353069 -0.872769 0.994068
v -0.871465 -1.003520 0.560572
v -0.990247 -1.003520 -0.113076
v -0.653837 -1.066847 -0.711668
v -1.162461 -1.054853 -0.150182
v -0.862932 -0.453387 -0.094124
v -0.569643 -0.516713 -0.618026
v -0.766733 -1.118179 -0.851516
v -0.002290 -0.453387 -0.816288
v -0.006855 -1.054853 -1.119851
v -1.023078 -1.054853 0.640299
v -0.759126 -0.453387 0.494589
v -0.413802 -1.118179 1.150053
v -0.306797 -0.516713 0.872648
v 0.394483 -1.054853 1.156250
v 0.296607 -0.453387 0.878845
v 1.009368 -1.054853 0.640300
v 0.754545 -0.453387 0.494589
v 1.143143 -1.118179 -0.156378
v 0.858351 -0.453387 -0.094124
v 0.747414 -1.054853 -0.845319
v 0.559453 -0.453387 -0.611830
v -0.470645 1.692862 -0.047718
v -0.162981 2.516458 0.010068
v -0.106769 2.453131 -0.103204
v -0.309076 1.629535 -0.343475
v 0.015024 2.516458 -0.139296
v 0.010725 1.692862 -0.451635
v -0.412585 1.692862 0.281558
v -0.141511 2.516458 0.131830
v -0.162062 1.629536 0.490282
v -0.052405 2.453131 0.205109
v 0.177903 1.692862 0.496478
v 0.076845 2.516458 0.211305
v 0.434034 1.692862 0.281558
v 0.171559 2.516458 0.131830
v 0.486486 1.629535 -0.053915
v 0.193029 2.516458 0.010068
v 0.324917 1.692862 -0.337279
v 0.131209 2.516458 -0.097008
v 0.005286 0.842699 -0.671042
v 0.010529 1.745409 -0.315061
v 0.242392 1.745409 -0.230669
v 0.463775 0.842699 -0.504165
v 0.365764 1.745409 -0.016983
v 0.702124 0.779372 -0.087815
v 0.322917 1.745409 0.226012
v 0.623007 0.842699 0.398883
v 0.133901 1.745409 0.384616
v 0.249243 0.842699 0.712509
v -0.118452 1.682083 0.378420
v -0.244281 0.779373 0.706312
v -0.301860 1.745409 0.226012
v -0.612436 0.842699 0.398883
v -0.344706 1.745409 -0.016983
v -0.697161 0.842699 -0.081619
v -0.458813 0.779373 -0.510362
v -0.226943 1.682082 -0.236866
v -0.864248 0.078844 -0.105654
v -0.545192 0.894761 -0.046827
v -0.359524 0.831434 -0.384325
v -0.569569 0.015518 -0.631965
v 0.005569 0.894761 -0.508971
v 0.000399 0.078844 -0.831178
v -0.759959 0.078845 0.485799
v -0.478762 0.894761 0.329916
v -0.305499 0.015518 0.865646
v -0.191317 0.831434 0.569622
v 0.300687 0.078845 0.871843
v 0.196847 0.894761 0.575818
v 0.760756 0.078844 0.485799
v 0.489901 0.894761 0.329917
v 0.859436 0.015518 -0.111850
v 0.556331 0.894761 -0.046827
v 0.564756 0.078845 -0.625769
v 0.365054 0.894761 -0.378129
v -0.003388 -0.512941 -0.997131
v 0.001149 0.136518 -0.681816
v 0.474390 0.136519 -0.509570
v 0.669916 -0.512940 -0.752068
v 0.726197 0.136518 -0.073428
v 1.022565 -0.576267 -0.137744
v 0.638746 0.136519 0.422534
v 0.903752 -0.512940 0.574081
v 0.252955 0.136519 0.746250
v 0.354870 -0.512940 1.034648
v -0.256267 0.073192 0.740054
v -0.367254 -0.576267 1.028452
v -0.636448 0.136519 0.422534
v -0.910528 -0.512940 0.574081
v -0.723899 0.136518 -0.073428
v -1.034949 -0.512941 -0.131548
v -0.682301 -0.576267 -0.758265
v -0.477702 0.073192 -0.515766
v -0.018886 -0.720161 -0.373037
v 0.231064 -0.720161 -0.282063
v 0.364060 -0.720161 -0.051708
v 0.317871 -0.720161 0.210242
v 0.114110 -0.720161 0.381218
v -0.151881 -0.720161 0.381218
v -0.355642 -0.720161 0.210242
v -0.401831 -0.720161 -0.051708
v -0.268836 -0.720161 -0.282063
vn 0.0000 1.0000 0.0000
vn 0.3238 0.3221 -0.8896
vn 0.8730 0.3022 -0.3827
vn 0.9536 0.2971 0.0477
vn 0.6109 0.3112 0.7280
vn -0.1164 0.2965 0.9479
vn -0.5313 0.3015 0.7917
vn -0.9327 0.3210 0.1645
vn -0.3809 0.3169 -0.8686
vn -0.7898 0.3166 -0.5253
vn 0.0415 -0.9991 0.0024
vn -0.7667 0.4310 -0.4757
vn -0.3356 0.4304 -0.8379
vn -0.8898 0.4285 0.1569
vn -0.5511 0.4230 0.7193
vn -0.0455 0.4187 0.9070
vn 0.5844 0.4163 0.6965
vn 0.9079 0.3960 0.1376
vn 0.8023 0.4025 -0.4408
vn 0.3093 0.4266 -0.8499
vn -0.7838 0.3370 -0.5217
vn -0.3783 0.3367 -0.8623
vn -0.9279 0.3351 0.1636
vn -0.5277 0.3288 0.7832
vn -0.1127 0.3256 0.9388
vn 0.6078 0.3254 0.7244
vn 0.9437 0.3122 0.1093
vn 0.8444 0.3173 -0.4317
vn 0.3224 0.3342 -0.8857
vn 0.3209 0.3458 -0.8817
vn 0.8325 0.3304 -0.4447
vn 0.9366 0.3260 0.1283
vn 0.6047 0.3390 0.7207
vn -0.0735 0.3409 0.9372
vn -0.5534 0.3441 0.7585
vn -0.9230 0.3487 0.1627
vn -0.3579 0.3490 -0.8661
vn -0.7906 0.3500 -0.5024
vn -0.7957 0.3507 -0.4939
vn -0.3486 0.3496 -0.8696
vn -0.9228 0.3491 0.1627
vn -0.5664 0.3446 0.7487
vn -0.0551 0.3408 0.9385
vn 0.6048 0.3385 0.7208
vn 0.9359 0.3243 0.1375
vn 0.8290 0.3293 -0.4520
vn 0.3209 0.3461 -0.8816
vn 0.3114 0.4133 -0.8557
vn 0.8077 0.3910 -0.4412
vn 0.9129 0.3849 0.1357
vn 0.5881 0.4035 0.7009
vn -0.0509 0.4056 0.9126
vn -0.5513 0.4096 0.7268
vn -0.8960 0.4150 0.1580
vn -0.3404 0.4168 -0.8429
vn -0.7708 0.4174 -0.4812
vn 0.1824 -0.8628 0.4715
vn 0.4346 -0.8567 0.2778
vn 0.4511 -0.8889 -0.0795
vn 0.0338 -0.8164 -0.5765
vn 0.3326 -0.8240 -0.4586
vn -0.3049 -0.8804 -0.3633
vn -0.6502 -0.7582 0.0485
vn -0.6189 -0.7661 0.1734
vn -0.1439 -0.9072 0.3954
vn -0.1295 -0.9255 0.3559
vn -0.5359 -0.8196 0.2028
vn -0.5873 -0.8093 -0.0082
vn -0.2691 -0.9081 -0.3207
vn 0.1984 -0.8870 -0.4170
vn 0.1156 -0.8858 -0.4495
vn 0.3987 -0.9144 -0.0703
vn 0.3033 -0.9077 0.2901
vn 0.2296 -0.9091 0.3477
vn 0.2137 -0.9379 0.2733
vn 0.2322 -0.9377 0.2586
vn 0.3356 -0.9401 -0.0592
vn 0.1208 -0.9255 -0.3590
vn 0.1379 -0.9257 -0.3523
vn -0.2263 -0.9360 -0.2697
vn -0.5129 -0.8581 -0.0235
vn -0.4618 -0.8659 0.1920
vn -0.1107 -0.9462 0.3041
vn -0.1302 -0.9247 0.3577
vn -0.5031 -0.8320 0.2339
vn -0.5695 -0.8205 -0.0494
vn -0.2660 -0.9104 -0.3170
vn 0.1072 -0.9038 -0.4144
vn 0.1839 -0.9047 -0.3844
vn 0.3927 -0.9170 -0.0692
vn 0.2232 -0.9201 0.3218
vn 0.2799 -0.9193 0.2765
vn 0.2434 -0.9398 0.2401
vn 0.1938 -0.9402 0.2801
vn 0.3381 -0.9392 -0.0596
vn 0.1572 -0.9309 -0.3297
vn 0.0922 -0.9303 -0.3550
vn -0.2282 -0.9348 -0.2720
vn -0.4989 -0.8656 -0.0432
vn -0.4422 -0.8730 0.2057
vn -0.1133 -0.9435 0.3114
vn -0.2817 -0.5673 0.7738
vn -0.6966 -0.6658 0.2673
vn -0.4648 -0.8844 -0.0418
vn -0.5116 -0.7239 -0.4627
vn 0.0523 -0.5359 -0.8427
vn 0.4635 -0.7303 -0.5019
vn 0.2956 -0.9539 -0.0521
vn 0.3663 -0.7441 0.5587
vn 0.2118 -0.9540 0.2122
usemtl (null)
s 1
f 146//20 145//20 153//20 152//20 151//20 150//20 149//20 148//20 147//20
f 28//21 29//21 30//21 31//21
f 31//22 30//22 32//22 33//22
f 33//23 32//23 34//23 35//23
f 35//24 34//24 36//24 37//24
f 37//25 36//25 38//25 39//25
f 39//26 38//26 40//26 41//26
f 41//27 40//27 42//27 43//27
f 30//20 29//20 44//20 42//20 40//20 38//20 36//20 34//20 32//20
f 45//28 44//28 29//28 28//28
f 43//29 42//29 44//29 45//29
f 46//30 47//30 48//30 49//30 50//30 51//30 52//30 53//30 54//30
f 55//31 56//31 57//31 58//31
f 58//32 57//32 59//32 60//32
f 61//33 62//33 56//33 55//33
f 63//34 64//34 62//34 61//34
f 65//35 66//35 64//35 63//35
f 67//36 68//36 66//36 65//36
f 69//37 70//37 68//37 67//37
f 71//38 72//38 70//38 69//38
f 60//39 59//39 72//39 71//39
f 73//40 74//40 75//40 76//40
f 76//41 75//41 77//41 78//41
f 79//42 80//42 74//42 73//42
f 81//43 82//43 80//43 79//43
f 83//44 84//44 82//44 81//44
f 85//45 86//45 84//45 83//45
f 87//46 88//46 86//46 85//46
f 89//47 90//47 88//47 87//47
f 78//48 77//48 90//48 89//48
f 91//49 92//49 93//49 94//49
f 94//50 93//50 95//50 96//50
f 96//51 95//51 97//51 98//51
f 98//52 97//52 99//52 100//52
f 100//53 99//53 101//53 102//53
f 102//54 101//54 103//54 104//54
f 104//55 103//55 105//55 106//55
f 107//56 108//56 92//56 91//56
f 106//57 105//57 108//57 107//57
f 109//58 110//58 111//58 112//58
f 112//59 111//59 113//59 114//59
f 115//60 116//60 110//60 109//60
f 117//61 118//61 116//61 115//61
f 119//62 120//62 118//62 117//62
f 121//63 122//63 120//63 119//63
f 123//64 124//64 122//64 121//64
f 125//65 126//65 124//65 123//65
f 114//66 113//66 126//66 125//66
f 127//67 128//67 129//67 130//67
f 130//68 129//68 131//68 132//68
f 132//69 131//69 133//69 134//69
f 134//70 133//70 135//70 136//70
f 136//71 135//71 137//71 138//71
f 138//72 137//72 139//72 140//72
f 140//73 139//73 141//73 142//73
f 143//74 144//74 128//74 127//74
f 142//75 141//75 144//75 143//75
f 74//76 43//76 45//76 75//76
f 75//77 45//77 28//77 77//77
f 80//78 41//78 43//78 74//78
f 82//79 39//79 41//79 80//79
f 84//80 37//80 39//80 82//80
f 86//81 35//81 37//81 84//81
f 88//82 33//82 35//82 86//82
f 90//83 31//83 33//83 88//83
f 77//84 28//84 31//84 90//84
f 92//85 78//85 89//85 93//85
f 93//86 89//86 87//86 95//86
f 95//87 87//87 85//87 97//87
f 97//88 85//88 83//88 99//88
f 99//89 83//89 81//89 101//89
f 101//90 81//90 79//90 103//90
f 103//91 79//91 73//91 105//91
f 108//92 76//92 78//92 92//92
f 105//93 73//93 76//93 108//93
f 110//94 106//94 107//94 111//94
f 111//95 107//95 91//95 113//95
f 116//96 104//96 106//96 110//96
f 118//97 102//97 104//97 116//97
f 120//98 100//98 102//98 118//98
f 122//99 98//99 100//99 120//99
f 124//100 96//100 98//100 122//100
f 126//101 94//101 96//101 124//101
f 113//102 91//102 94//102 126//102
f 128//103 114//103 125//103 129//103
f 129//104 125//104 123//104 131//104
f 131//105 123//105 121//105 133//105
f 133//106 121//106 119//106 135//106
f 135//107 119//107 117//107 137//107
f 137//108 117//108 115//108 139//108
f 139//109 115//109 109//109 141//109
f 144//110 112//110 114//110 128//110
f 141//111 109//111 112//111 144//111
f 56//112 142//112 143//112 57//112
f 57//113 143//113 127//113 59//113
f 62//114 140//114 142//114 56//114
f 64//115 138//115 140//115 62//115
f 66//116 136//116 138//116 64//116
f 68//117 134//117 136//117 66//117
f 70//118 132//118 134//118 68//118
f 72//119 130//119 132//119 70//119
f 59//120 127//120 130//120 72//120
f 46//121 60//121 71//121 47//121
f 47//122 71//122 69//122 48//122
f 48//123 69//123 67//123 49//123
f 49//124 67//124 65//124 50//124
f 50//125 65//125 63//125 51//125
f 51//126 63//126 61//126 52//126
f 52//127 61//127 55//127 53//127
f 54//128 58//128 60//128 46//128
f 53//129 55//129 58//129 54//129
